<svg width="180" height="61" viewBox="0 0 180 61" fill="none" xmlns="http://www.w3.org/2000/svg">
<rect x="1.5" y="1.72839" width="177" height="57" rx="6.5" stroke="#293548" stroke-width="3"/>
<path d="M67.2949 23.0096V37.2284H64.8633V23.0096H67.2949ZM71.7578 23.0096V24.9628H60.4395V23.0096H71.7578ZM75.7227 36.076L78.5938 26.662H81.1133L76.875 38.8397C76.7773 39.1001 76.6504 39.3833 76.4941 39.6893C76.3379 39.9953 76.1328 40.285 75.8789 40.5585C75.6315 40.8384 75.3223 41.063 74.9512 41.2323C74.5801 41.4081 74.1309 41.496 73.6035 41.496C73.3952 41.496 73.1934 41.4764 72.998 41.4374C72.8092 41.4048 72.6302 41.369 72.4609 41.33L72.4512 39.5331C72.5163 39.5396 72.5944 39.5461 72.6855 39.5526C72.7832 39.5591 72.8613 39.5624 72.9199 39.5624C73.3105 39.5624 73.6361 39.5135 73.8965 39.4159C74.1569 39.3247 74.3685 39.175 74.5312 38.9667C74.7005 38.7583 74.8438 38.4784 74.9609 38.1268L75.7227 36.076ZM74.1016 26.662L76.6113 34.5721L77.0312 37.0526L75.4004 37.4725L71.5625 26.662H74.1016ZM84.8242 28.6932V41.2909H82.4707V26.662H84.6387L84.8242 28.6932ZM91.709 31.8475V32.0526C91.709 32.8208 91.6178 33.5337 91.4355 34.1913C91.2598 34.8423 90.9961 35.412 90.6445 35.9003C90.2995 36.382 89.873 36.7564 89.3652 37.0233C88.8574 37.2902 88.2715 37.4237 87.6074 37.4237C86.9499 37.4237 86.3737 37.3033 85.8789 37.0624C85.3906 36.815 84.9772 36.4667 84.6387 36.0175C84.3001 35.5682 84.0267 35.0409 83.8184 34.4354C83.6165 33.8234 83.4733 33.1529 83.3887 32.4237V31.6327C83.4733 30.858 83.6165 30.1548 83.8184 29.5233C84.0267 28.8918 84.3001 28.3482 84.6387 27.8925C84.9772 27.4367 85.3906 27.0852 85.8789 26.8378C86.3672 26.5904 86.9368 26.4667 87.5879 26.4667C88.252 26.4667 88.8411 26.5969 89.3555 26.8573C89.8698 27.1112 90.3027 27.4758 90.6543 27.951C91.0059 28.4198 91.2695 28.9862 91.4453 29.6503C91.6211 30.3078 91.709 31.0402 91.709 31.8475ZM89.3555 32.0526V31.8475C89.3555 31.3593 89.3099 30.9068 89.2188 30.4901C89.1276 30.0669 88.9844 29.6958 88.7891 29.3768C88.5938 29.0578 88.3431 28.8104 88.0371 28.6346C87.7376 28.4524 87.3763 28.3612 86.9531 28.3612C86.5365 28.3612 86.1784 28.4328 85.8789 28.576C85.5794 28.7128 85.3288 28.9048 85.127 29.1522C84.9251 29.3996 84.7689 29.6893 84.6582 30.0214C84.5475 30.3469 84.4694 30.7017 84.4238 31.0858V32.9803C84.502 33.4491 84.6354 33.8788 84.8242 34.2694C85.013 34.66 85.2799 34.9725 85.625 35.2069C85.9766 35.4348 86.4258 35.5487 86.9727 35.5487C87.3958 35.5487 87.7572 35.4576 88.0566 35.2753C88.3561 35.093 88.6003 34.8423 88.7891 34.5233C88.9844 34.1978 89.1276 33.8234 89.2188 33.4003C89.3099 32.9771 89.3555 32.5279 89.3555 32.0526ZM98.3691 37.4237C97.5879 37.4237 96.8815 37.2968 96.25 37.0428C95.625 36.7824 95.0911 36.4211 94.6484 35.9589C94.2122 35.4966 93.877 34.953 93.6426 34.328C93.4082 33.703 93.291 33.0292 93.291 32.3065V31.9159C93.291 31.0891 93.4115 30.3404 93.6523 29.6698C93.8932 28.9992 94.2285 28.4263 94.6582 27.951C95.0879 27.4693 95.5957 27.1014 96.1816 26.8475C96.7676 26.5936 97.4023 26.4667 98.0859 26.4667C98.8411 26.4667 99.502 26.5936 100.068 26.8475C100.635 27.1014 101.104 27.4595 101.475 27.9218C101.852 28.3775 102.132 28.9211 102.314 29.5526C102.503 30.1841 102.598 30.8807 102.598 31.6425V32.6483H94.4336V30.9589H100.273V30.7733C100.26 30.3501 100.176 29.953 100.02 29.5819C99.8698 29.2108 99.6387 28.9113 99.3262 28.6835C99.0137 28.4556 98.597 28.3417 98.0762 28.3417C97.6855 28.3417 97.3372 28.4263 97.0312 28.5956C96.7318 28.7583 96.4811 28.996 96.2793 29.3085C96.0775 29.621 95.9212 29.9986 95.8105 30.4413C95.7064 30.8775 95.6543 31.369 95.6543 31.9159V32.3065C95.6543 32.7688 95.7161 33.1984 95.8398 33.5956C95.9701 33.9862 96.1589 34.328 96.4062 34.621C96.6536 34.9139 96.9531 35.1451 97.3047 35.3143C97.6562 35.4771 98.0566 35.5585 98.5059 35.5585C99.0723 35.5585 99.5768 35.4445 100.02 35.2167C100.462 34.9888 100.846 34.6665 101.172 34.2499L102.412 35.451C102.184 35.7831 101.888 36.1021 101.523 36.4081C101.159 36.7076 100.713 36.9517 100.186 37.1405C99.6647 37.3293 99.0592 37.4237 98.3691 37.4237ZM112.148 33.5663C112.148 33.2733 112.103 33.0129 112.012 32.785C111.927 32.5572 111.774 32.3488 111.553 32.16C111.331 31.9712 111.019 31.7889 110.615 31.6132C110.218 31.4309 109.71 31.2453 109.092 31.0565C108.415 30.8482 107.79 30.6171 107.217 30.3632C106.65 30.1027 106.156 29.8033 105.732 29.4647C105.309 29.1197 104.98 28.7258 104.746 28.2831C104.512 27.8339 104.395 27.3163 104.395 26.7303C104.395 26.1509 104.515 25.6236 104.756 25.1483C105.003 24.6731 105.352 24.2629 105.801 23.9178C106.257 23.5663 106.794 23.2961 107.412 23.1073C108.031 22.912 108.714 22.8143 109.463 22.8143C110.518 22.8143 111.426 23.0096 112.188 23.4003C112.956 23.7909 113.545 24.315 113.955 24.9725C114.372 25.6301 114.58 26.356 114.58 27.1503H112.148C112.148 26.6815 112.048 26.2681 111.846 25.91C111.65 25.5455 111.351 25.259 110.947 25.0507C110.55 24.8423 110.046 24.7382 109.434 24.7382C108.854 24.7382 108.372 24.826 107.988 25.0018C107.604 25.1776 107.318 25.4152 107.129 25.7147C106.94 26.0142 106.846 26.3527 106.846 26.7303C106.846 26.9973 106.908 27.2414 107.031 27.4628C107.155 27.6776 107.344 27.8794 107.598 28.0682C107.852 28.2505 108.171 28.4231 108.555 28.5858C108.939 28.7486 109.391 28.9048 109.912 29.0546C110.7 29.2889 111.387 29.5494 111.973 29.8358C112.559 30.1158 113.047 30.4348 113.438 30.7928C113.828 31.1509 114.121 31.5578 114.316 32.0135C114.512 32.4628 114.609 32.9738 114.609 33.5468C114.609 34.1457 114.489 34.6861 114.248 35.1678C114.007 35.6431 113.662 36.05 113.213 36.3885C112.77 36.7206 112.236 36.9777 111.611 37.16C110.993 37.3358 110.303 37.4237 109.541 37.4237C108.857 37.4237 108.184 37.3326 107.52 37.1503C106.862 36.968 106.263 36.6913 105.723 36.3202C105.182 35.9426 104.753 35.4738 104.434 34.9139C104.115 34.3475 103.955 33.6867 103.955 32.9315H106.406C106.406 33.3938 106.484 33.7876 106.641 34.1132C106.803 34.4387 107.028 34.7056 107.314 34.9139C107.601 35.1158 107.933 35.2655 108.311 35.3632C108.695 35.4608 109.105 35.5096 109.541 35.5096C110.114 35.5096 110.592 35.4283 110.977 35.2655C111.367 35.1027 111.66 34.8749 111.855 34.5819C112.051 34.2889 112.148 33.9504 112.148 33.5663ZM120.859 35.5487C121.243 35.5487 121.589 35.4738 121.895 35.3241C122.207 35.1678 122.458 34.953 122.646 34.6796C122.842 34.4061 122.949 34.0904 122.969 33.7323H125.186C125.173 34.4159 124.971 35.0376 124.58 35.5975C124.189 36.1574 123.672 36.6034 123.027 36.9354C122.383 37.2609 121.67 37.4237 120.889 37.4237C120.081 37.4237 119.378 37.287 118.779 37.0135C118.18 36.7336 117.682 36.3495 117.285 35.8612C116.888 35.3729 116.589 34.8098 116.387 34.1718C116.191 33.5337 116.094 32.8501 116.094 32.121V31.7792C116.094 31.05 116.191 30.3664 116.387 29.7284C116.589 29.0839 116.888 28.5175 117.285 28.0292C117.682 27.5409 118.18 27.16 118.779 26.8866C119.378 26.6066 120.078 26.4667 120.879 26.4667C121.725 26.4667 122.467 26.6359 123.105 26.9745C123.743 27.3065 124.245 27.772 124.609 28.371C124.98 28.9634 125.173 29.6535 125.186 30.4413H122.969C122.949 30.0507 122.852 29.6991 122.676 29.3866C122.507 29.0676 122.266 28.8137 121.953 28.6249C121.647 28.4361 121.279 28.3417 120.85 28.3417C120.374 28.3417 119.98 28.4393 119.668 28.6346C119.355 28.8234 119.111 29.0839 118.936 29.4159C118.76 29.7414 118.633 30.1093 118.555 30.5194C118.483 30.9231 118.447 31.343 118.447 31.7792V32.121C118.447 32.5572 118.483 32.9803 118.555 33.3905C118.626 33.8007 118.75 34.1685 118.926 34.494C119.108 34.813 119.355 35.0702 119.668 35.2655C119.98 35.4543 120.378 35.5487 120.859 35.5487ZM129.355 28.6737V37.2284H127.002V26.662H129.248L129.355 28.6737ZM132.588 26.5936L132.568 28.7811C132.425 28.7551 132.269 28.7356 132.1 28.7225C131.937 28.7095 131.774 28.703 131.611 28.703C131.208 28.703 130.853 28.7616 130.547 28.8788C130.241 28.9895 129.984 29.1522 129.775 29.3671C129.574 29.5754 129.417 29.8293 129.307 30.1288C129.196 30.4283 129.131 30.7635 129.111 31.1346L128.574 31.1737C128.574 30.5096 128.639 29.8944 128.77 29.328C128.9 28.7616 129.095 28.2635 129.355 27.8339C129.622 27.4042 129.954 27.0689 130.352 26.828C130.755 26.5871 131.221 26.4667 131.748 26.4667C131.891 26.4667 132.044 26.4797 132.207 26.5057C132.376 26.5318 132.503 26.5611 132.588 26.5936ZM136.582 26.662V37.2284H134.219V26.662H136.582ZM134.062 23.8885C134.062 23.5305 134.18 23.2343 134.414 22.9999C134.655 22.759 134.987 22.6385 135.41 22.6385C135.827 22.6385 136.156 22.759 136.396 22.9999C136.637 23.2343 136.758 23.5305 136.758 23.8885C136.758 24.2401 136.637 24.5331 136.396 24.7675C136.156 25.0018 135.827 25.119 135.41 25.119C134.987 25.119 134.655 25.0018 134.414 24.7675C134.18 24.5331 134.062 24.2401 134.062 23.8885ZM141.523 28.6932V41.2909H139.17V26.662H141.338L141.523 28.6932ZM148.408 31.8475V32.0526C148.408 32.8208 148.317 33.5337 148.135 34.1913C147.959 34.8423 147.695 35.412 147.344 35.9003C146.999 36.382 146.572 36.7564 146.064 37.0233C145.557 37.2902 144.971 37.4237 144.307 37.4237C143.649 37.4237 143.073 37.3033 142.578 37.0624C142.09 36.815 141.676 36.4667 141.338 36.0175C140.999 35.5682 140.726 35.0409 140.518 34.4354C140.316 33.8234 140.173 33.1529 140.088 32.4237V31.6327C140.173 30.858 140.316 30.1548 140.518 29.5233C140.726 28.8918 140.999 28.3482 141.338 27.8925C141.676 27.4367 142.09 27.0852 142.578 26.8378C143.066 26.5904 143.636 26.4667 144.287 26.4667C144.951 26.4667 145.54 26.5969 146.055 26.8573C146.569 27.1112 147.002 27.4758 147.354 27.951C147.705 28.4198 147.969 28.9862 148.145 29.6503C148.32 30.3078 148.408 31.0402 148.408 31.8475ZM146.055 32.0526V31.8475C146.055 31.3593 146.009 30.9068 145.918 30.4901C145.827 30.0669 145.684 29.6958 145.488 29.3768C145.293 29.0578 145.042 28.8104 144.736 28.6346C144.437 28.4524 144.076 28.3612 143.652 28.3612C143.236 28.3612 142.878 28.4328 142.578 28.576C142.279 28.7128 142.028 28.9048 141.826 29.1522C141.624 29.3996 141.468 29.6893 141.357 30.0214C141.247 30.3469 141.169 30.7017 141.123 31.0858V32.9803C141.201 33.4491 141.335 33.8788 141.523 34.2694C141.712 34.66 141.979 34.9725 142.324 35.2069C142.676 35.4348 143.125 35.5487 143.672 35.5487C144.095 35.5487 144.456 35.4576 144.756 35.2753C145.055 35.093 145.299 34.8423 145.488 34.5233C145.684 34.1978 145.827 33.8234 145.918 33.4003C146.009 32.9771 146.055 32.5279 146.055 32.0526ZM155.254 26.662V28.3807H149.297V26.662H155.254ZM151.016 24.0741H153.369V34.3085C153.369 34.634 153.415 34.8846 153.506 35.0604C153.604 35.2297 153.737 35.3436 153.906 35.4022C154.076 35.4608 154.274 35.4901 154.502 35.4901C154.665 35.4901 154.821 35.4803 154.971 35.4608C155.12 35.4413 155.241 35.4218 155.332 35.4022L155.342 37.1991C155.146 37.2577 154.919 37.3098 154.658 37.3553C154.404 37.4009 154.111 37.4237 153.779 37.4237C153.239 37.4237 152.76 37.3293 152.344 37.1405C151.927 36.9452 151.602 36.6294 151.367 36.1932C151.133 35.757 151.016 35.1776 151.016 34.455V24.0741Z" fill="white"/>
<path d="M45.86 12.7284H14.14C13.2343 12.7284 12.5 13.4626 12.5 14.3684V46.0884C12.5 46.9941 13.2343 47.7284 14.14 47.7284H45.86C46.7657 47.7284 47.5 46.9941 47.5 46.0884V14.3684C47.5 13.4626 46.7657 12.7284 45.86 12.7284Z" fill="#3178C6"/>
<path fill-rule="evenodd" clip-rule="evenodd" d="M32.8063 39.9271V43.7621C33.503 44.1061 34.2456 44.3481 35.0113 44.4809C35.896 44.6442 36.7941 44.7246 37.6938 44.7209C38.5706 44.7251 39.4455 44.6367 40.3038 44.4571C41.0744 44.3014 41.8096 44.0048 42.4725 43.5821C43.0879 43.1849 43.5951 42.6411 43.9488 41.9996C44.582 40.6713 44.6656 39.1467 44.1812 37.7571C43.9769 37.2375 43.6723 36.7631 43.285 36.3609C42.8692 35.9332 42.3969 35.5644 41.8813 35.2646C41.2876 34.9169 40.6707 34.6104 40.035 34.3471C39.535 34.1396 39.085 33.938 38.685 33.7421C38.3297 33.572 37.9897 33.3717 37.6688 33.1434C37.4174 32.9672 37.199 32.748 37.0238 32.4959C36.8723 32.267 36.7935 31.9978 36.7975 31.7234C36.7942 31.4708 36.8645 31.2228 37 31.0096C37.1471 30.7866 37.3434 30.6001 37.5738 30.4646C37.8553 30.2989 38.1617 30.1794 38.4813 30.1109C38.8735 30.0238 39.2745 29.9818 39.6763 29.9859C40.0142 29.9871 40.3516 30.0113 40.6863 30.0584C41.0476 30.1073 41.4051 30.1812 41.7563 30.2796C42.1134 30.3786 42.4627 30.504 42.8013 30.6546C43.1298 30.8011 43.4441 30.9777 43.74 31.1821V27.6034C43.1239 27.3703 42.485 27.2027 41.8337 27.1034C41.0474 26.989 40.2534 26.9351 39.4587 26.9421C38.5901 26.9375 37.7241 27.0361 36.8788 27.2359C36.1147 27.4105 35.3882 27.7208 34.7338 28.1521C34.1258 28.5571 33.6239 29.1019 33.27 29.7409C32.895 30.4505 32.7094 31.2448 32.7313 32.0471C32.7036 33.1081 33.053 34.1446 33.7175 34.9721C34.5327 35.8897 35.5607 36.5932 36.7113 37.0209C37.2362 37.2376 37.7258 37.4496 38.18 37.6571C38.5898 37.8395 38.9836 38.0556 39.3575 38.3034C39.6591 38.4996 39.9239 38.7471 40.14 39.0346C40.33 39.2955 40.4308 39.6107 40.4275 39.9334C40.4292 40.1752 40.3671 40.4132 40.2475 40.6234C40.1146 40.8492 39.9278 41.0386 39.7038 41.1746C39.4235 41.3455 39.1168 41.4689 38.7963 41.5396C38.3787 41.633 37.9516 41.6771 37.5238 41.6709C36.6841 41.6694 35.8512 41.5213 35.0625 41.2334C34.2385 40.9361 33.4744 40.4937 32.8063 39.9271ZM26.3637 30.3796H31.3638V27.2209H17.4225V30.3796H22.4V44.4471H26.3637V30.3796Z" fill="white"/>
</svg>
